<mxfile host="app.diagrams.net" agent="Mozilla/5.0 (Windows NT 10.0; Win64; x64; rv:136.0) Gecko/20100101 Firefox/136.0" version="26.2.3">
  <diagram name="Страница — 1" id="rTsru66jcaErksvdFoFt">
    <mxGraphModel dx="1428" dy="728" grid="1" gridSize="10" guides="1" tooltips="1" connect="1" arrows="1" fold="1" page="1" pageScale="1" pageWidth="827" pageHeight="1169" math="0" shadow="0">
      <root>
        <mxCell id="0" />
        <mxCell id="1" parent="0" />
        <mxCell id="97fda4tvgliUyuYsYdo3-4" style="edgeStyle=orthogonalEdgeStyle;rounded=0;orthogonalLoop=1;jettySize=auto;html=1;exitX=1;exitY=0.5;exitDx=0;exitDy=0;" edge="1" parent="1" source="97fda4tvgliUyuYsYdo3-1" target="97fda4tvgliUyuYsYdo3-2">
          <mxGeometry relative="1" as="geometry" />
        </mxCell>
        <mxCell id="97fda4tvgliUyuYsYdo3-1" value="&lt;div&gt;Начать с &quot;Аул&quot;&lt;/div&gt;&lt;div&gt;в слоте №1&lt;/div&gt;" style="rounded=1;whiteSpace=wrap;html=1;" vertex="1" parent="1">
          <mxGeometry x="40" y="40" width="120" height="40" as="geometry" />
        </mxCell>
        <mxCell id="97fda4tvgliUyuYsYdo3-6" style="edgeStyle=orthogonalEdgeStyle;rounded=0;orthogonalLoop=1;jettySize=auto;html=1;exitX=1;exitY=0.5;exitDx=0;exitDy=0;entryX=0;entryY=0.5;entryDx=0;entryDy=0;" edge="1" parent="1" source="97fda4tvgliUyuYsYdo3-2" target="97fda4tvgliUyuYsYdo3-5">
          <mxGeometry relative="1" as="geometry" />
        </mxCell>
        <mxCell id="97fda4tvgliUyuYsYdo3-2" value="&lt;div&gt;1-й известный&lt;/div&gt;&lt;div&gt;сработал&lt;/div&gt;" style="rounded=1;whiteSpace=wrap;html=1;" vertex="1" parent="1">
          <mxGeometry x="240" y="40" width="120" height="40" as="geometry" />
        </mxCell>
        <mxCell id="97fda4tvgliUyuYsYdo3-8" style="edgeStyle=orthogonalEdgeStyle;rounded=0;orthogonalLoop=1;jettySize=auto;html=1;exitX=1;exitY=0.5;exitDx=0;exitDy=0;entryX=0;entryY=0.5;entryDx=0;entryDy=0;" edge="1" parent="1" source="97fda4tvgliUyuYsYdo3-5" target="97fda4tvgliUyuYsYdo3-7">
          <mxGeometry relative="1" as="geometry" />
        </mxCell>
        <mxCell id="97fda4tvgliUyuYsYdo3-5" value="&lt;div&gt;Случайный мод&lt;/div&gt;&lt;div&gt;сработал&lt;/div&gt;" style="rounded=1;whiteSpace=wrap;html=1;" vertex="1" parent="1">
          <mxGeometry x="440" y="40" width="120" height="40" as="geometry" />
        </mxCell>
        <mxCell id="97fda4tvgliUyuYsYdo3-7" value="" style="rounded=1;whiteSpace=wrap;html=1;arcSize=50;" vertex="1" parent="1">
          <mxGeometry x="880" y="40" width="120" height="40" as="geometry" />
        </mxCell>
        <mxCell id="97fda4tvgliUyuYsYdo3-9" value="14.3%" style="text;html=1;align=center;verticalAlign=middle;whiteSpace=wrap;rounded=0;" vertex="1" parent="1">
          <mxGeometry x="360" y="30" width="80" height="30" as="geometry" />
        </mxCell>
        <mxCell id="97fda4tvgliUyuYsYdo3-10" value="33.3%" style="text;html=1;align=center;verticalAlign=middle;whiteSpace=wrap;rounded=0;" vertex="1" parent="1">
          <mxGeometry x="160" y="30" width="80" height="30" as="geometry" />
        </mxCell>
      </root>
    </mxGraphModel>
  </diagram>
</mxfile>
